<svg width="24" height="24" viewBox="0 0 24 24" fill="none" xmlns="http://www.w3.org/2000/svg">
<path d="M11.9992 18.9147C13.5312 18.9132 15.074 18.7103 16.4998 18.2112C17.8865 17.6971 19.3341 16.9078 19.7698 15.3174C20.2149 16.974 18.6657 18.5569 17.0635 19.3867C15.505 20.2165 13.7357 20.5217 12.0008 20.5548C10.2643 20.5217 8.49651 20.2165 6.93802 19.3867C5.33424 18.5569 3.78512 16.974 4.23174 15.3174C4.66743 16.9078 6.11505 17.6956 7.50176 18.2112C8.92439 18.7103 10.4688 18.9132 11.9992 18.9147Z" fill="#47873E"/>
<path d="M19.8839 20.7424C22.7588 19.3804 24.3173 17.4818 22.6385 14.8135C24.717 16.6069 24.7014 19.5082 20.5725 22.0112C17.9365 23.4498 14.9382 23.9624 11.9993 24C9.06032 23.9624 6.06202 23.4483 3.42602 22.0112C-0.701323 19.5082 -0.716939 16.6069 1.36157 14.8135C-0.318727 17.4818 1.24132 19.3819 4.11625 20.7424C6.63513 21.8007 9.53661 22.2066 11.9993 22.1856C14.4635 22.2066 17.3665 21.8007 19.8839 20.7424Z" fill="#47873E"/>
<path d="M11.9999 0C11.9999 0 5.31934 7.31346 5.31934 10.8657C5.31934 14.4195 8.30984 17.2998 11.9999 17.2998C15.6916 17.2998 18.6821 14.4195 18.6821 10.8657C18.6821 7.31346 11.9999 0 11.9999 0ZM8.49723 13.8903C7.3916 12.6997 7.25731 11.1213 7.76483 10.0374C7.90382 11.0251 8.29578 12.1465 9.32801 13.1733C10.4571 14.2947 11.4175 14.666 12.3997 14.9652C11.3019 15.3831 9.67157 15.1576 8.49723 13.8903Z" fill="#47873E"/>
</svg>
