<svg width="19" height="24" viewBox="0 0 19 24" fill="none" xmlns="http://www.w3.org/2000/svg">
<path d="M9.12299 1.11172e-05C7.07395 -0.00306196 4.24494 0.63157 3.07712 1.16478C1.90359 1.69031 1.12362 2.21892 0.879788 3.53428L0 10.8702V20.9736H1.51432V22.5502C1.51289 24.4833 4.11946 24.4833 4.11661 22.5502V20.9736H13.9483V22.5502C13.9497 24.4833 16.5563 24.4833 16.562 22.5502V20.9736H18.0635V10.8702L17.1837 3.53428C16.9455 2.21892 16.1656 1.69031 14.9978 1.16478C13.8242 0.63157 10.9952 -0.00306196 8.95188 1.11172e-05" fill="#47873E"/>
<path d="M15.2545 17.809C15.9418 17.8028 16.5022 17.1959 16.5008 16.446C16.5022 15.6992 15.9418 15.0922 15.2545 15.0953C14.5615 15.0922 14.0012 15.6992 13.9969 16.446C14.0012 17.1959 14.5615 17.8028 15.2545 17.809Z" fill="#F1F8F0"/>
<path d="M2.82213 17.809C2.12771 17.8028 1.56733 17.1959 1.56305 16.446C1.56733 15.6992 2.12771 15.0922 2.82213 15.0953C3.50799 15.0922 4.06837 15.6992 4.06694 16.446C4.06837 17.1959 3.50799 17.8028 2.82213 17.809Z" fill="#F1F8F0"/>
<path d="M8.94094 3.04417H5.31342C4.5862 3.03802 4.5862 1.84864 5.31342 1.85325H12.751C13.4839 1.84864 13.4839 3.03802 12.751 3.04417H8.94094Z" fill="#F1F8F0"/>
<path d="M8.93961 4.23648H3.34574C2.57147 4.23955 2.36899 4.6652 2.27061 5.30906L1.58759 10.632C1.52913 11.136 1.66459 11.6416 2.31909 11.6385H15.7541C16.4028 11.6416 16.5383 11.136 16.4756 10.632L15.7911 5.30906C15.6984 4.6652 15.496 4.23955 14.7288 4.23648H8.93961Z" fill="#F1F8F0"/>
</svg>
