<svg width="16" height="24" viewBox="0 0 16 24" fill="none" xmlns="http://www.w3.org/2000/svg">
<path d="M15.1096 7.69048C14.7197 7.69048 14.3889 7.93622 14.3889 8.25454C14.3889 9.01088 13.739 9.60169 12.9415 9.60169C12.1416 9.60169 11.4917 8.98542 11.4917 8.23035C11.4917 7.90566 11.168 7.64209 10.7698 7.64209C10.3799 7.64209 10.0502 7.91203 10.0502 8.23035C10.0502 8.98542 9.39803 9.60169 8.60048 9.60169C7.80058 9.60169 7.15073 8.98542 7.15073 8.23035C7.15073 7.90566 6.82698 7.64209 6.42998 7.64209C6.04007 7.64209 5.70924 7.91203 5.70924 8.23035C5.70924 8.98542 5.05939 9.60169 4.25948 9.60169C3.46075 9.60169 2.80854 8.98542 2.80854 8.23035C2.80854 7.90566 2.48716 7.64209 2.08898 7.64209C1.69907 7.64209 1.36941 7.91203 1.36941 8.23035C1.36941 8.95995 0.760917 9.59914 0 9.64244C0.141786 10.3924 0.393455 11.0303 0.769188 11.532L0.757372 11.5358L5.15509 20.5699V23.6092C5.15509 23.8257 5.31815 24.0001 5.51901 24.0001H9.89428C10.0951 24.0001 10.2582 23.8244 10.2582 23.6092V20.4731C10.2582 20.4412 10.2476 20.4145 10.2428 20.3865L14.37 11.4785C14.8568 10.7617 15.1711 9.73029 15.1711 8.22781C15.1711 8.04572 15.1569 7.86619 15.1451 7.68793C15.1309 7.69048 15.1214 7.69048 15.1096 7.69048ZM5.7376 20.0835L2.08898 12.5863C2.71047 12.8702 3.44421 13.0307 4.32328 13.0307H5.34414L6.24093 20.0835H5.7376ZM6.97704 20.0835L6.08024 13.0307H8.97622L8.0806 20.0835H6.97704ZM9.56699 20.0835H8.81435L9.70996 13.0307H10.7036C11.4457 13.0307 12.281 12.9517 13.0277 12.6118L9.56699 20.0835Z" fill="#47873E"/>
<path d="M0.0619287 8.86592C0.458928 8.86592 0.782672 8.57688 0.782672 8.25347C0.782672 7.49841 1.43252 6.8694 2.23125 6.8694C3.02997 6.8694 3.68101 7.47931 3.68101 8.23564C3.68101 8.55269 4.01184 8.82008 4.40293 8.82008C4.79993 8.82008 5.12249 8.55397 5.12249 8.23055C5.12249 7.47422 5.77352 6.85922 6.57225 6.85922C7.37216 6.85922 8.02201 7.47421 8.02201 8.22928C8.02201 8.54887 8.35166 8.81754 8.74157 8.81754C9.14093 8.81754 9.46349 8.55396 9.46349 8.22928C9.46349 7.47421 10.1145 6.85794 10.9133 6.85794C11.712 6.85794 12.363 7.47421 12.363 8.22928C12.363 8.54887 12.6927 8.81754 13.0826 8.81754C13.4796 8.81754 13.8033 8.55396 13.8033 8.22928C13.8033 7.48949 14.4272 6.93434 15.2046 6.91142C14.6139 2.99987 11.4591 0 7.65573 0C3.43524 0 0.000488281 3.69127 0.000488281 8.22928C0.000488281 8.45337 0.021756 8.65456 0.0382978 8.86337C0.0477501 8.86337 0.056021 8.86592 0.0619287 8.86592Z" fill="#47873E"/>
</svg>
