<svg width="19" height="24" viewBox="0 0 19 24" fill="none" xmlns="http://www.w3.org/2000/svg">
<path d="M9.12299 1.11172e-05C7.07395 -0.00306196 4.24494 0.63157 3.07712 1.16478C1.90359 1.69031 1.12362 2.21892 0.879788 3.53428L0 10.8702V20.9736H1.51432V22.5502C1.51289 24.4833 4.11946 24.4833 4.11661 22.5502V20.9736H13.9483V22.5502C13.9497 24.4833 16.5563 24.4833 16.562 22.5502V20.9736H18.0635V10.8702L17.1837 3.53428C16.9455 2.21892 16.1656 1.69031 14.9978 1.16478C13.8242 0.63157 10.9952 -0.00306196 8.95188 1.11172e-05" fill="#47873E"/>
<path d="M15.2547 17.8089C15.942 17.8028 16.5024 17.1958 16.501 16.4459C16.5024 15.6991 15.942 15.0922 15.2547 15.0952C14.5617 15.0922 14.0013 15.6991 13.9971 16.4459C14.0013 17.1958 14.5617 17.8028 15.2547 17.8089Z" fill="#F1F8F0"/>
<path d="M2.82206 17.8089C2.12765 17.8028 1.56727 17.1958 1.56299 16.4459C1.56727 15.6991 2.12765 15.0922 2.82206 15.0952C3.50793 15.0922 4.06831 15.6991 4.06688 16.4459C4.06831 17.1958 3.50793 17.8028 2.82206 17.8089Z" fill="#F1F8F0"/>
<path d="M8.941 3.04396H5.31348C4.58626 3.03781 4.58626 1.84843 5.31348 1.85304H12.751C13.484 1.84843 13.484 3.03781 12.751 3.04396H8.941Z" fill="#F1F8F0"/>
<path d="M8.93949 4.23633H3.34562C2.57135 4.2394 2.36887 4.66505 2.27048 5.3089L1.58747 10.6318C1.52901 11.1358 1.66447 11.6414 2.31896 11.6383H15.7539C16.4027 11.6414 16.5382 11.1358 16.4754 10.6318L15.791 5.3089C15.6983 4.66505 15.4958 4.2394 14.7287 4.23633H8.93949Z" fill="#F1F8F0"/>
</svg>
