<svg width="24" height="24" viewBox="0 0 24 24" fill="none" xmlns="http://www.w3.org/2000/svg">
<path d="M2.38661 23.2391C3.95813 24.1314 5.45489 24.2586 5.7305 23.5204C5.98118 22.8557 5.14997 21.7144 3.83206 20.8418L3.57845 21.519C4.12086 21.9347 4.44191 22.4239 4.32903 22.7231C4.18829 23.0976 3.43038 23.0331 2.63436 22.5816C1.83834 22.1282 1.30619 21.4599 1.44692 21.0854C1.5598 20.7862 2.06996 20.7683 2.67834 21.0066L2.93195 20.3311C1.53781 19.661 0.2932 19.6234 0.0439845 20.2881C-0.231618 21.0245 0.816553 22.3468 2.38661 23.2391Z" fill="#47873E"/>
<path d="M2.43799 21.6466C2.4893 21.5105 2.73265 21.514 2.9804 21.6556C3.22962 21.7971 3.38941 22.0229 3.3381 22.1591L3.57853 21.5176L3.83214 20.8421L5.20284 17.1869C5.04598 17.1242 4.89205 17.0507 4.74105 16.9647C4.59006 16.8787 4.44346 16.7802 4.30272 16.6763L2.93203 20.3297L2.67841 21.0052L2.43799 21.6466Z" fill="#47873E"/>
<path d="M5.20336 17.1892C7.25573 18.0223 9.67459 16.9455 10.3944 14.4048C10.7506 13.1488 11.3458 9.83048 11.5965 8.40605C11.6639 8.01724 11.5041 7.62306 11.2109 7.45642L6.42745 4.73656C6.13425 4.56993 5.78535 4.67565 5.58891 4.99099C4.87058 6.15025 3.20523 8.85936 2.65988 10.0079C1.556 12.33 2.45758 15.2953 4.30324 16.6767C4.44398 16.7824 4.59058 16.881 4.74157 16.967C4.89257 17.053 5.0465 17.1264 5.20336 17.1892ZM3.7623 10.4146C3.96607 9.98815 4.37948 9.26608 4.80754 8.54759C4.8266 8.51534 4.85592 8.49384 4.8867 8.49026C5.09634 8.46338 5.31037 8.51714 5.51561 8.67839C6.8863 9.67102 8.87123 10.5113 10.1159 9.1102C10.1979 9.01882 10.3299 9.10662 10.3079 9.23921C10.3079 9.23921 10.3079 9.241 10.3079 9.24279C10.1246 10.2856 9.68778 12.7152 9.42684 13.6361C8.85951 15.6375 6.85112 16.4008 5.28692 15.5121C3.72272 14.6234 2.89151 12.2457 3.7623 10.4146Z" fill="#47873E"/>
<path d="M2.79356 22.1523C3.04277 22.2939 3.28613 22.2975 3.33744 22.1595C3.38875 22.0215 3.22896 21.7958 2.97974 21.656C2.73199 21.5145 2.48863 21.5109 2.43732 21.6471C2.38601 21.785 2.5458 22.0108 2.79356 22.1523Z" fill="#F1F8F0"/>
<path d="M21.3228 21.0066C21.9312 20.7683 22.4414 20.7862 22.5543 21.0855C22.6935 21.4599 22.1628 22.1283 21.3668 22.5816C20.5708 23.0331 19.8129 23.0976 19.6722 22.7231C19.5593 22.4239 19.8803 21.9348 20.4227 21.5191L20.1691 20.8436C18.8497 21.7144 18.02 22.8557 18.2692 23.5205C18.5463 24.2587 20.043 24.1315 21.6131 23.2392C23.1846 22.3469 24.2328 21.0263 23.9557 20.2881C23.7065 19.6234 22.4634 19.661 21.0692 20.3311L21.3228 21.0066Z" fill="#47873E"/>
<path d="M20.6621 22.1578C20.6108 22.0198 20.7706 21.794 21.0183 21.6543C21.2675 21.5127 21.5109 21.5092 21.5622 21.6453L21.3218 21.0039L21.0681 20.3284L19.6975 16.6733C19.5567 16.7791 19.4101 16.8776 19.2591 16.9636C19.1081 17.0496 18.9528 17.1213 18.7974 17.1858L20.168 20.8391L20.4217 21.5163L20.6621 22.1578Z" fill="#47873E"/>
<path d="M19.6977 16.6767C21.5434 15.2953 22.445 12.33 21.3411 10.0079C20.7943 8.85936 19.1304 6.15025 18.4106 4.99099C18.2156 4.67565 17.8667 4.56993 17.5735 4.73656L12.79 7.45642C12.4968 7.62306 12.3371 8.01724 12.4045 8.40605C12.6537 9.83048 13.2504 13.1488 13.6066 14.4048C14.3264 16.9455 16.7453 18.0223 18.7976 17.1892C18.953 17.1264 19.1084 17.053 19.2594 16.967C19.4104 16.881 19.557 16.7824 19.6977 16.6767ZM14.5741 13.6361C14.3132 12.7152 13.8763 10.2856 13.6931 9.24279C13.6931 9.241 13.6931 9.23921 13.6931 9.23921C13.6696 9.10662 13.803 9.01882 13.8837 9.1102C14.923 10.2802 16.4799 9.88602 17.7626 9.14783C18.0163 9.0009 18.2581 8.84144 18.4839 8.67839C18.6906 8.51714 18.9032 8.46338 19.1128 8.49026C19.1451 8.49384 19.1744 8.51534 19.192 8.54759C19.62 9.26608 20.0349 9.98815 20.2387 10.4146C21.108 12.2457 20.2783 14.6234 18.7141 15.5121C17.1499 16.4008 15.1415 15.6375 14.5741 13.6361Z" fill="#47873E"/>
<path d="M21.2034 22.1524C21.4526 22.0108 21.6124 21.7851 21.5611 21.6471C21.5098 21.5109 21.2664 21.5145 21.0172 21.656C20.7694 21.7976 20.6096 22.0234 20.661 22.1595C20.7123 22.2957 20.9556 22.2939 21.2034 22.1524Z" fill="#F1F8F0"/>
<path d="M11.5947 0.422847V3.26811C11.5947 3.50103 11.7487 3.68916 11.9378 3.68916C12.1269 3.68916 12.2808 3.50103 12.2808 3.26811V0.422847C12.2808 0.189923 12.1269 0 11.9378 0C11.7487 0 11.5947 0.189923 11.5947 0.422847Z" fill="#47873E"/>
<path d="M13.3071 4.22167C13.4127 4.22167 13.5182 4.16075 13.5842 4.04607L14.9387 1.74007C15.0487 1.55193 15.015 1.28854 14.861 1.15237C14.7086 1.0162 14.4946 1.05741 14.3831 1.24733L13.0301 3.55334C12.9186 3.74147 12.9538 4.00486 13.1063 4.14104C13.1679 4.19658 13.2368 4.22167 13.3071 4.22167Z" fill="#47873E"/>
<path d="M9.06903 1.09787C8.91363 1.23046 8.87552 1.49385 8.98253 1.68377L10.299 4.02378C10.3664 4.14203 10.4734 4.20474 10.5819 4.20474C10.6479 4.20474 10.7168 4.17966 10.7754 4.12949C10.9323 3.9969 10.9704 3.73531 10.8619 3.54359L9.54547 1.20358C9.43845 1.01366 9.22442 0.965283 9.06903 1.09787Z" fill="#47873E"/>
</svg>
